<?xml version="1.0" standalone="no"?>
<!DOCTYPE svg PUBLIC "-//W3C//DTD SVG 20010904//EN"
 "http://www.w3.org/TR/2001/REC-SVG-20010904/DTD/svg10.dtd">
<svg version="1.0" xmlns="http://www.w3.org/2000/svg"
 width="225.000000pt" height="225.000000pt" viewBox="0 0 225.000000 225.000000"
 preserveAspectRatio="xMidYMid meet">

<g transform="translate(0.000000,225.000000) scale(0.100000,-0.100000)"
fill="#000000" stroke="none">
<path d="M530 1740 c-20 -20 -21 -29 -18 -585 3 -551 3 -564 24 -591 11 -15
33 -37 48 -48 27 -21 38 -21 541 -21 503 0 514 0 541 21 15 11 37 33 48 48 21
27 21 38 21 561 0 523 0 534 -21 561 -11 15 -33 37 -48 48 -26 20 -40 21 -296
21 -257 0 -270 -1 -297 -21 -15 -12 -37 -36 -48 -55 -19 -32 -20 -52 -20 -306
0 -260 1 -273 21 -300 11 -15 36 -38 54 -50 31 -22 43 -23 209 -23 124 0 181
-4 189 -12 8 -8 12 -48 12 -114 0 -95 -2 -104 -22 -118 -19 -14 -69 -16 -344
-16 -292 0 -324 2 -343 18 -21 17 -21 23 -23 495 -3 558 9 507 -125 507 -70 0
-86 -3 -103 -20z m944 -246 c13 -12 16 -39 16 -130 l0 -114 -101 0 c-143 0
-139 -4 -139 140 l0 120 104 0 c82 0 108 -3 120 -16z"/>
</g>
</svg>
